<?xml version="1.0" encoding="UTF-8"?>
<svg width="82px" height="27px" viewBox="0 0 82 27" version="1.1" xmlns="http://www.w3.org/2000/svg" xmlns:xlink="http://www.w3.org/1999/xlink">
    <!-- Generator: sketchtool 52.5 (67469) - http://www.bohemiancoding.com/sketch -->
    <title>927C2AC2-4EEB-45EC-8A1C-1722EF8675A8</title>
    <desc>Created with sketchtool.</desc>
    <defs>
        <polygon id="path-1" points="5.68918003e-05 0.0909473684 81.9335795 0.0909473684 81.9335795 26.9998863 5.68918003e-05 26.9998863"></polygon>
        <polygon id="path-3" points="0.0266884108 0.0331632692 5.98440666 0.0331632692 5.98440666 11.2149277 0.0266884108 11.2149277"></polygon>
    </defs>
    <g id="Design" stroke="none" stroke-width="1" fill="none" fill-rule="evenodd">
        <g id="2_AboutUs" transform="translate(-135.000000, -28.000000)">
            <g id="TOPNAV">
                <g id="Logos/Color" transform="translate(135.000000, 28.000000)">
                    <g id="logos">
                        <g id="Group-3">
                            <mask id="mask-2" fill="white">
                                <use xlink:href="#path-1"></use>
                            </mask>
                            <g id="Clip-2"></g>
                            <path d="M13.4296508,9.56868632 C15.613727,9.56868632 17.3702614,11.3231179 17.3702614,13.5067074 C17.3702614,15.6510758 15.613727,17.4069284 13.4296508,17.4069284 C11.2791408,17.4069284 9.52516655,15.6510758 9.52516655,13.5067074 C9.52516655,11.3231179 11.2791408,9.56868632 13.4296508,9.56868632 Z M49.2626668,24.8199916 L49.2626668,25.1672968 C49.2626668,26.1824968 48.4417181,26.9998863 47.3860907,26.9998863 C46.3737011,26.9998863 45.5123593,26.1824968 45.5123593,25.1672968 C45.5123593,25.0544653 45.555597,24.9376547 45.555597,24.8543811 L45.555597,13.5851495 L45.555597,13.5067074 C45.555597,8.19992842 41.3404836,3.87566526 36.1843797,3.87566526 C30.9167679,3.87566526 26.8586758,8.36136 26.8586758,13.5067074 C26.8586758,20.8751495 20.8503328,26.9231495 13.4296508,26.9231495 C6.05448228,26.9231495 5.68918003e-05,20.8751495 5.68918003e-05,13.5067074 C5.68918003e-05,6.09677053 6.05448228,0.0908336842 13.4296508,0.0908336842 L13.5829742,0.0908336842 C14.6016219,0.0908336842 15.4200104,0.912486316 15.4200104,1.92626526 C15.4200104,2.93720211 14.6016219,3.75516 13.5829742,3.75516 L13.4296508,3.75516 C8.08523509,3.75516 3.71054011,8.12660211 3.71054011,13.5067074 C3.71054011,18.8498653 8.08523509,23.2190337 13.4296508,23.2190337 C18.8164509,23.2190337 23.1883013,18.8498653 23.1883013,13.5067074 C23.1883013,6.40798105 29.0433209,0.325591579 36.1843797,0.325591579 C43.3709519,0.325591579 49.226256,6.29145474 49.226256,13.5851495 L49.2626668,13.5851495 L49.2626668,24.8199916 Z M18.579781,0.481623158 C19.5952997,0.481623158 20.4566415,1.29958105 20.4566415,2.31336 C20.4566415,3.32827579 19.5952997,4.14594947 18.579781,4.14594947 C17.567107,4.14594947 16.7461583,3.32827579 16.7461583,2.31336 C16.7461583,1.29958105 17.567107,0.481623158 18.579781,0.481623158 Z M71.4362459,3.91545474 C72.4110869,3.87566526 73.1896512,3.05401263 73.1896512,2.08144421 C73.1896512,1.10489684 72.4110869,0.28836 71.4362459,0.248570526 L43.6821501,0.248570526 C45.4753796,1.10489684 47.0754615,2.39151789 48.3615006,3.91545474 L56.7974168,3.91545474 L56.7974168,25.2454547 C56.837241,26.2208653 57.6525005,26.9998863 58.6281949,26.9998863 C59.6465581,26.9998863 60.4251224,26.2208653 60.4618176,25.2454547 L60.5013574,3.91545474 L71.4362459,3.91545474 Z M76.2754624,0.444675789 C77.2906966,0.444675789 78.1494783,1.29958105 78.1494783,2.31336 C78.1494783,3.32827579 77.2906966,4.14594947 76.2754624,4.14594947 C75.2599438,4.14594947 74.4384262,3.32827579 74.4384262,2.31336 C74.4384262,1.29958105 75.2599438,0.444675789 76.2754624,0.444675789 Z M80.7215566,1.10489684 C81.3888974,1.10489684 81.9336364,1.65086526 81.9336364,2.31336 C81.9336364,2.97585474 81.3888974,3.52210737 80.7215566,3.52210737 C80.0570604,3.52210737 79.5126059,2.97585474 79.5126059,2.31336 C79.5126059,1.65086526 80.0570604,1.10489684 80.7215566,1.10489684 Z M23.0651306,1.10489684 C23.7358849,1.10489684 24.2806239,1.65086526 24.2806239,2.31336 C24.2806239,2.97585474 23.7358849,3.52210737 23.0651306,3.52210737 C22.4006343,3.52210737 21.8593089,2.97585474 21.8593089,2.31336 C21.8593089,1.65086526 22.4006343,1.10489684 23.0651306,1.10489684 Z" id="Fill-1" fill="#F16C24" mask="url(#mask-2)"></path>
                        </g>
                        <path d="M73.653944,25.9823398 C73.653944,26.4301087 74.0243379,26.7923077 74.4822377,26.7923077 C74.9398506,26.7923077 75.3102445,26.4301087 75.3102445,25.9823398 L75.3102445,19.7385447 C75.3108183,19.6897278 75.3142612,19.6150996 75.3231552,19.5230769 C74.7573793,20.8195306 74.162339,22.168729 73.653944,23.296568 L73.653944,25.9823398 Z" id="Fill-4" fill="#46679B"></path>
                        <g id="Group-8" transform="translate(75.949109, 15.784615)">
                            <mask id="mask-4" fill="white">
                                <use xlink:href="#path-3"></use>
                            </mask>
                            <g id="Clip-7"></g>
                            <path d="M1.99645246,0.0331632692 C1.9483678,0.0331632692 1.90625815,0.0391603846 1.85931159,0.0403026923 C1.81236502,0.0391603846 1.76968633,0.0331632692 1.72160167,0.0331632692 C1.16734768,0.0331632692 0.707840389,0.135399808 0.288451076,0.276474808 C0.461157529,0.526354615 0.622198473,0.900460385 0.478513532,1.24086808 C0.338242887,1.5747075 0.185168633,1.93710462 0.0266884108,2.31178154 C0.374092991,1.95281135 0.904731437,1.68179885 1.72160167,1.68179885 C1.77025538,1.68179885 1.81264955,1.68722481 1.85931159,1.68893827 C1.9056891,1.68722481 1.94808328,1.68179885 1.99645246,1.68179885 C4.20208744,1.68179885 4.33666759,3.64599692 4.34178904,4.03523827 L4.34178904,10.3907527 C4.34178904,10.8462479 4.70911034,11.2149277 5.16321166,11.2149277 C5.61731298,11.2149277 5.98463428,10.8462479 5.98463428,10.3907527 L5.98463428,4.03523827 C5.98463428,2.65104692 5.15126162,0.0331632692 1.99645246,0.0331632692" id="Fill-6" fill="#46679B" mask="url(#mask-4)"></path>
                        </g>
                        <path d="M75.2078483,15.8540697 C74.7619504,15.6653968 74.2527162,15.8749082 74.0655352,16.3156142 C72.7640334,19.3802808 70.5885489,24.4265755 70.3024052,24.8976944 C70.2679096,24.9455666 70.2387862,24.9807667 70.2147524,25.0069557 C70.2136214,25.0058293 70.2124904,25.0044213 70.2110767,25.0032948 C70.2099457,25.0044213 70.2088147,25.0058293 70.2074009,25.0069557 C70.1833671,24.9807667 70.1542438,24.9455666 70.1197482,24.8976944 C69.8336044,24.4265755 67.6581199,19.3802808 66.3566181,16.3156142 C66.1697199,15.8749082 65.6604857,15.6653968 65.214305,15.8540697 C64.770669,16.0402081 64.5634127,16.5496248 64.7511592,16.9914572 C66.0735846,20.1079384 68.3452043,25.4102087 68.7003393,25.9058269 C69.2208835,26.6329214 69.7945848,26.7923077 70.1969391,26.7923077 C70.2020286,26.7923077 70.2065527,26.7920261 70.2110767,26.7920261 C70.2158834,26.7920261 70.2204074,26.7923077 70.2252142,26.7923077 C70.6278513,26.7923077 71.2015526,26.6329214 71.721814,25.9058269 C72.0772318,25.4102087 74.3488515,20.1079384 75.6712768,16.9914572 C75.8590234,16.5496248 75.6514843,16.0402081 75.2078483,15.8540697" id="Fill-9" fill="#46679B"></path>
                    </g>
                </g>
            </g>
        </g>
    </g>
</svg>